# xmcd CD database file
#
# Track frame offsets:
#	150
#	11872
#	22892
#	34475
#	45535
#	55920
#	67132
#	77510
#	89320
#	100970
#	112257
#	122602
#	134440
#	145515
#	156202
#	166140
#
# Disc length: 2366 seconds
#
# Revision: 5
# Processed by: cddbd v1.5.2PL0 Copyright (c) Steve Scherf et al.
# Submitted via: CDex 1.51
#
DISCID=d6093c10
DTITLE=Patsy Cline - Walking After Midnight
DYEAR=2001
DGENRE=Country
TTITLE0=Walking After Midnight
TTITLE1=I Cried All The Way To The After
TTITLE2=In Care Of The Blues
TTITLE3=I Can't Forget You
TTITLE4=I Love You Honey
TTITLE5=Just Out Of Reach
TTITLE6=Walking Dream
TTITLE7=Today Tomorrow And Forever
TTITLE8=Let The Teardrops Fall
TTITLE9=Hungry For Your Love
TTITLE10=Too Many Secrets
TTITLE11=Never No More
TTITLE12=Stop The World
TTITLE13=I Don't Wanna
TTITLE14=Turn The Cards Slowly
TTITLE15=I've Loved And Lost Again
EXTD=YEAR: 2001
EXTT0=
EXTT1=
EXTT2=
EXTT3=
EXTT4=
EXTT5=
EXTT6=
EXTT7=
EXTT8=
EXTT9=
EXTT10=
EXTT11=
EXTT12=
EXTT13=
EXTT14=
EXTT15=
PLAYORDER=
